<svg width="102" height="101" viewBox="0 0 102 101" fill="none" xmlns="http://www.w3.org/2000/svg">
<path d="M19.4707 54.0617L4.32701 69.1843L4.39499 69.2522C-1.87117 76.8892 -1.43493 88.1765 5.70371 95.3052C12.8424 102.434 24.1453 102.87 31.7929 96.6121L31.8609 96.68L47.0046 81.5574C54.6079 73.9647 54.6079 61.6544 47.0046 54.0617C39.4013 46.469 27.0739 46.469 19.4707 54.0617Z" fill="#6767EF"/>
<g filter="url(#filter0_biiii_790_2861)">
<path d="M5.7982 48.0341C5.7982 74.5626 27.3337 96.0681 53.8991 96.0681C80.4645 96.0681 102 74.5626 102 48.0341C102 21.5056 80.4645 0 53.8991 0C27.3337 0 5.7982 21.5056 5.7982 48.0341Z" fill="url(#paint0_linear_790_2861)"/>
</g>
<path d="M20.2974 64.1456L12.002 72.4295C11.9812 72.45 11.9604 72.4705 11.9398 72.4912C11.9191 72.5118 11.8985 72.5325 11.8781 72.5532L11.097 73.3333L11.1384 73.3746C7.30006 78.0524 7.5672 84.9661 11.9398 89.3326C16.3124 93.6992 23.2358 93.9659 27.92 90.1329L27.9619 90.1747L55.9297 62.2458L39.0648 45.4043L20.4473 63.996C20.4221 64.0206 20.397 64.0455 20.372 64.0704C20.347 64.0954 20.3222 64.1205 20.2974 64.1456Z" fill="url(#paint1_linear_790_2861)"/>
<defs>
<filter id="filter0_biiii_790_2861" x="-15.2031" y="-21" width="138.203" height="138.068" filterUnits="userSpaceOnUse" color-interpolation-filters="sRGB">
<feFlood flood-opacity="0" result="BackgroundImageFix"/>
<feGaussianBlur in="BackgroundImage" stdDeviation="10.5"/>
<feComposite in2="SourceAlpha" operator="in" result="effect1_backgroundBlur_790_2861"/>
<feBlend mode="normal" in="SourceGraphic" in2="effect1_backgroundBlur_790_2861" result="shape"/>
<feColorMatrix in="SourceAlpha" type="matrix" values="0 0 0 0 0 0 0 0 0 0 0 0 0 0 0 0 0 0 127 0" result="hardAlpha"/>
<feOffset dx="10" dy="10"/>
<feGaussianBlur stdDeviation="11.5"/>
<feComposite in2="hardAlpha" operator="arithmetic" k2="-1" k3="1"/>
<feColorMatrix type="matrix" values="0 0 0 0 0.6 0 0 0 0 0.368627 0 0 0 0 0.831373 0 0 0 0.18 0"/>
<feBlend mode="normal" in2="shape" result="effect2_innerShadow_790_2861"/>
<feColorMatrix in="SourceAlpha" type="matrix" values="0 0 0 0 0 0 0 0 0 0 0 0 0 0 0 0 0 0 127 0" result="hardAlpha"/>
<feMorphology radius="2" operator="erode" in="SourceAlpha" result="effect3_innerShadow_790_2861"/>
<feOffset dy="2"/>
<feGaussianBlur stdDeviation="3"/>
<feComposite in2="hardAlpha" operator="arithmetic" k2="-1" k3="1"/>
<feColorMatrix type="matrix" values="0 0 0 0 1 0 0 0 0 1 0 0 0 0 1 0 0 0 0.05 0"/>
<feBlend mode="normal" in2="effect2_innerShadow_790_2861" result="effect3_innerShadow_790_2861"/>
<feColorMatrix in="SourceAlpha" type="matrix" values="0 0 0 0 0 0 0 0 0 0 0 0 0 0 0 0 0 0 127 0" result="hardAlpha"/>
<feOffset dy="1"/>
<feComposite in2="hardAlpha" operator="arithmetic" k2="-1" k3="1"/>
<feColorMatrix type="matrix" values="0 0 0 0 1 0 0 0 0 1 0 0 0 0 1 0 0 0 0.05 0"/>
<feBlend mode="normal" in2="effect3_innerShadow_790_2861" result="effect4_innerShadow_790_2861"/>
<feColorMatrix in="SourceAlpha" type="matrix" values="0 0 0 0 0 0 0 0 0 0 0 0 0 0 0 0 0 0 127 0" result="hardAlpha"/>
<feOffset dy="-10"/>
<feGaussianBlur stdDeviation="5"/>
<feComposite in2="hardAlpha" operator="arithmetic" k2="-1" k3="1"/>
<feColorMatrix type="matrix" values="0 0 0 0 0.6 0 0 0 0 0.368627 0 0 0 0 0.831373 0 0 0 0.4 0"/>
<feBlend mode="overlay" in2="effect4_innerShadow_790_2861" result="effect5_innerShadow_790_2861"/>
</filter>
<linearGradient id="paint0_linear_790_2861" x1="53.8991" y1="190.162" x2="117.126" y2="22.3377" gradientUnits="userSpaceOnUse">
<stop stop-color="#6767EF" stop-opacity="0.01"/>
<stop offset="1" stop-color="#6767EF" stop-opacity="0.1"/>
</linearGradient>
<linearGradient id="paint1_linear_790_2861" x1="-3.05165" y1="106.073" x2="46.3118" y2="54.9834" gradientUnits="userSpaceOnUse">
<stop stop-color="white"/>
<stop offset="1" stop-color="white" stop-opacity="0"/>
</linearGradient>
</defs>
</svg>
